@startuml

class  ConsumerKafka{
  + listOfEvent : Evenement[]
}

abstract UtilisateurExterne{
  - id : int
  - name : string
  - surname : string
}

class Sponsor{
  - listOfDonnation : Donnation[]
  - listOfVote : Vote[]
  + discoverAnimals(TypeZone) : Animal[]
  + doDonation(int) : void
  + voteForName(String) : void
}

class Utilisateur{}

abstract Donation{
  - id : int
  - amount : int
  - date : date
  - donateur : UtilisateurExterne
}

class DonationReguliére{
  - dateFin : date
}

class DonationPontuelle{
}

class Evenement{
  - id : int
  - name : string
  - date : date
  - description : string
  - ConsumerKafka : ConsumerKafka
  - listOfVote : Vote[]
}
class Vote{
  + id : int
  + date : date
  + voter : Sponsor
  + animal : Animal
}



class Animal{
    - id : int
    - weight : float
    - size : float
    - food : string
    - vulnerability : Vulnerability
    - family : string
    - life : int
    - habitat : string
    - geographicArea : string
    - numberIndividualConted : int
    - name : string
    - listOfDonnation : Donnation[]
    - listOfEvent : Evenement[]
    + addDonation(Donation) : void
    + addEvenement(Evenement) : void
}


enum Vulnerability <<enumeration>> {
  endangered
  vulnerable
  near_threatened
  least_concern
  data_deficient
  not_evaluated
}


interface AnimalRepository{
  + getAnimals(TypeZone) : Animal[]
  + getAnimal(id) : Animal
}

class AnimalRepositoryBDD{
  + getAnimals(TypeZone) : Animal[]
  + getAnimal(id) : Animal
}

class AnimalRepositoryAPI{
  + getAnimals(TypeZone) : Animal[]
  + getAnimal(id) : Animal
}

Animal "1..*" -- "1..1" Vulnerability

Donation -right- Animal
Donation "0..*" -- "1..1" UtilisateurExterne

AnimalRepositoryAPI -up-( AnimalRepository : <<implement>>

AnimalRepositoryBDD -up-( AnimalRepository : <<implement>>

AnimalRepository -left- UtilisateurExterne

'AnimalRepository "1..*" -- "1..*" Animal

(DonationPontuelle, DonationReguliére) .. Donation

class Sponsor extends UtilisateurExterne
class Utilisateur extends UtilisateurExterne


ConsumerKafka "1..1" -- "0..*" Evenement
Animal "1..1" -- "0..*" Evenement

Evenement "1..1" -- "0..1" Vote
note on link
Le vote pour le nom
de l'annimal se fait
lors de sa naissance
end note

Vote -- UtilisateurExterne

@enduml
